<svg id="Capa_1" enable-background="new 0 0 510 510" height="512" viewBox="0 0 510 510" width="512" xmlns="http://www.w3.org/2000/svg" xmlns:xlink="http://www.w3.org/1999/xlink"><linearGradient id="lg1"><stop offset="0" stop-color="#f8f6fb"/><stop offset=".5047" stop-color="#f7f4fb"/><stop offset=".7657" stop-color="#f5ecfb"/><stop offset=".9705" stop-color="#f0dffb"/><stop offset="1" stop-color="#efdcfb"/></linearGradient><radialGradient id="SVGID_1_" cx="249.138" cy="123.83" gradientTransform="matrix(.998 0 0 .676 -1.815 40.58)" gradientUnits="userSpaceOnUse" r="235.789" xlink:href="#lg1"/><linearGradient id="lg2"><stop offset="0" stop-color="#efdcfb" stop-opacity="0"/><stop offset=".0287" stop-color="#e9d6f7" stop-opacity=".029"/><stop offset=".2203" stop-color="#c5b5de" stop-opacity=".22"/><stop offset=".4138" stop-color="#aa9bcb" stop-opacity=".414"/><stop offset=".6078" stop-color="#9688bd" stop-opacity=".608"/><stop offset=".8028" stop-color="#8a7db5" stop-opacity=".803"/><stop offset="1" stop-color="#8679b2"/></linearGradient><linearGradient id="SVGID_2_" gradientUnits="userSpaceOnUse" x1="381.22" x2="277.121" xlink:href="#lg2" y1="229.789" y2="-11.8"/><linearGradient id="SVGID_3_" gradientUnits="userSpaceOnUse" x1="300.991" x2="348.991" y1="93.2" y2="215.2"><stop offset="0" stop-color="#ffa936"/><stop offset=".4112" stop-color="#ff8548"/><stop offset=".7781" stop-color="#ff6c54"/><stop offset="1" stop-color="#ff6359"/></linearGradient><linearGradient id="lg3"><stop offset="0" stop-color="#f82814" stop-opacity="0"/><stop offset=".2454" stop-color="#f12817" stop-opacity=".245"/><stop offset=".6052" stop-color="#dd2820" stop-opacity=".605"/><stop offset="1" stop-color="#c0272d"/></linearGradient><linearGradient id="SVGID_4_" gradientTransform="matrix(-.999 -.055 .055 -.999 -752.312 -161.899)" gradientUnits="userSpaceOnUse" x1="-1170.475" x2="-1147.134" xlink:href="#lg3" y1="-222.22" y2="-189.862"/><linearGradient id="SVGID_5_" gradientTransform="matrix(-.999 -.055 .055 -.999 -752.312 -161.899)" gradientUnits="userSpaceOnUse" x1="-1154.468" x2="-1136.042" xlink:href="#lg3" y1="-242.656" y2="-217.11"/><linearGradient id="SVGID_6_" gradientTransform="matrix(-.999 -.055 .055 -.999 -752.312 -161.899)" gradientUnits="userSpaceOnUse" x1="-1181.385" x2="-1170.276" xlink:href="#lg3" y1="-243.371" y2="-227.97"/><linearGradient id="lg4"><stop offset="0" stop-color="#fff" stop-opacity="0"/><stop offset="1" stop-color="#fff"/></linearGradient><linearGradient id="SVGID_7_" gradientTransform="matrix(.631 -.331 .359 .684 -545.916 -153.194)" gradientUnits="userSpaceOnUse" x1="863.075" x2="863.075" xlink:href="#lg4" y1="791.771" y2="643.246"/><radialGradient id="SVGID_8_" cx="203.724098" cy="195.136294" gradientUnits="userSpaceOnUse" r="276.768354" xlink:href="#lg1"/><linearGradient id="SVGID_9_" gradientUnits="userSpaceOnUse" x1="319.549" x2="237.281" xlink:href="#lg2" y1="391.605" y2="103.303"/><linearGradient id="SVGID_10_" gradientUnits="userSpaceOnUse" x1="233.061" x2="270.167" y1="203.653" y2="343.697"><stop offset="0" stop-color="#ffd945"/><stop offset=".3043" stop-color="#ffcd3e"/><stop offset=".8558" stop-color="#ffad2b"/><stop offset="1" stop-color="#ffa325"/></linearGradient><linearGradient id="SVGID_11_" gradientTransform="matrix(-.999 -.055 .055 -.999 -752.312 -161.899)" gradientUnits="userSpaceOnUse" x1="-1014.749" x2="-991.408" xlink:href="#lg3" y1="-409.605" y2="-377.246"/><linearGradient id="SVGID_12_" gradientTransform="matrix(-.999 -.055 .055 -.999 -752.312 -161.899)" gradientUnits="userSpaceOnUse" x1="-998.742" x2="-980.316" xlink:href="#lg3" y1="-430.04" y2="-404.495"/><linearGradient id="SVGID_13_" gradientTransform="matrix(-.999 -.055 .055 -.999 -752.312 -161.899)" gradientUnits="userSpaceOnUse" x1="-1025.659" x2="-1014.55" xlink:href="#lg3" y1="-430.755" y2="-415.354"/><linearGradient id="SVGID_14_" gradientTransform="matrix(-.625 -.781 .781 -.625 -551.839 -426.123)" gradientUnits="userSpaceOnUse" x1="-1088.533" x2="-1071.285" xlink:href="#lg3" y1="186.081" y2="209.992"/><linearGradient id="SVGID_15_" gradientTransform="matrix(-.625 -.781 .781 -.625 -551.839 -426.123)" gradientUnits="userSpaceOnUse" x1="-1076.704" x2="-1063.089" xlink:href="#lg3" y1="170.98" y2="189.857"/><linearGradient id="SVGID_16_" gradientTransform="matrix(-.625 -.781 .781 -.625 -551.839 -426.123)" gradientUnits="userSpaceOnUse" x1="-1096.594" x2="-1088.385" xlink:href="#lg3" y1="170.452" y2="181.832"/><linearGradient id="SVGID_17_" gradientTransform="matrix(.686 -.36 .464 .886 -676.461 -272.604)" gradientUnits="userSpaceOnUse" x1="705.414" x2="705.414" xlink:href="#lg4" y1="886.782" y2="738.256"/><g><g><path d="m510 141.037c0-32.759-51.177-59.316-114.307-59.316-36.895 0-144.306 0-181.201 0-63.13 0-114.307 26.557-114.307 59.316 0 23.353 26.009 43.552 63.814 53.227 9.668 2.474 17.829 8.862 22.894 17.46 16.524 28.048 58.049 47.944 106.665 47.944 45.243 0 84.343-17.231 102.869-42.227 7.71-10.402 19.019-17.564 31.817-19.533 47.272-7.273 81.756-29.981 81.756-56.871z" fill="url(#SVGID_1_)"/><path d="m406.414 81.983c-3.53-.17-7.105-.262-10.721-.262-33.662 0-126.015 0-169.964 0-14.048 15.338-22.368 34.38-22.368 55.009 0 5.712 2.857 10.78 7.915 15.207l106.095 106.095c34.872-4.845 63.874-20.107 79.055-40.59 7.71-10.402 19.019-17.564 31.817-19.533 28.426-4.374 52.214-14.333 66.674-27.422z" fill="url(#SVGID_2_)"/><path d="m428.426 136.73c0 50.766-225.064 50.766-225.064 0s50.382-91.92 112.532-91.92 112.532 41.154 112.532 91.92z" fill="url(#SVGID_3_)"/><g><circle cx="397.223" cy="113.651" fill="url(#SVGID_4_)" r="8.429"/><circle cx="381.572" cy="135.449" fill="url(#SVGID_5_)" r="6.655"/><circle cx="410.579" cy="141.033" fill="url(#SVGID_6_)" r="4.012"/></g><path d="m334.971 66.698c10.055 19.185-7.044 47.972-38.194 64.299s-64.552 14.009-74.607-5.176 7.044-47.972 38.194-64.299 64.551-14.009 74.607 5.176z" fill="url(#SVGID_7_)"/></g><g><path d="m510 287.589c0-46.932-74.727-92.864-166.908-92.864-44.881 0-176.087 0-221.328 0-67.248 0-121.764 28.086-121.764 62.731 0 10.208 4.733 19.845 13.13 28.362 17.065 17.31 24.455 41.348 20.234 64.631-.877 4.836-1.331 9.786-1.331 14.822 0 55.183 54.516 99.918 121.764 99.918 23.449 0 45.348-5.441 63.927-14.867 18.999-9.639 40.982-12.351 62.15-8.395 10.025 1.874 20.46 2.864 31.178 2.864 61.256 0 113.306-32.302 132.206-77.264 3.676-8.744 10.438-15.989 19.178-20.54 29.424-15.319 47.564-36.278 47.564-59.398z" fill="url(#SVGID_8_)"/><path d="m480.196 336.055-114.894-114.894c-9.925-10.405-22.016-19.361-35.707-26.436-36.065 0-99.223 0-149.208 0-39.145 20.229-65.141 55.9-65.141 96.535 0 7.152 3.607 13.489 9.984 19.019l130.069 130.069c8.169-.467 16.432.058 24.576 1.58 10.025 1.874 20.46 2.863 31.178 2.863 61.256 0 113.306-32.302 132.206-77.264 3.676-8.744 10.438-15.989 19.178-20.539 6.495-3.381 12.438-7.039 17.759-10.933z" fill="url(#SVGID_9_)"/><path d="m394.754 291.26c0 63.047-279.508 63.047-279.508 0s62.57-114.156 139.754-114.156 139.754 51.11 139.754 114.156z" fill="url(#SVGID_10_)"/><g opacity=".6"><g><circle cx="231.412" cy="292.174" fill="url(#SVGID_11_)" r="8.429"/><circle cx="215.761" cy="313.972" fill="url(#SVGID_12_)" r="6.655"/><circle cx="244.767" cy="319.556" fill="url(#SVGID_13_)" r="4.012"/></g><g><circle cx="275.982" cy="298.526" fill="url(#SVGID_14_)" r="6.229"/><circle cx="256.267" cy="300.646" fill="url(#SVGID_15_)" r="4.917"/><circle cx="267.482" cy="319.372" fill="url(#SVGID_16_)" r="2.965"/></g></g><path d="m274.007 214.88c13.019 24.839-3.894 59.372-37.776 77.13s-71.903 12.019-84.922-12.82 3.894-59.372 37.776-77.13 71.903-12.019 84.922 12.82z" fill="url(#SVGID_17_)"/></g></g></svg>